#define float_width 11
#define float_height 8
static unsigned char float_bits[] = {
   0x3f, 0x00, 0x3f, 0x00, 0xbf, 0x07, 0xbf, 0x07, 0xbf, 0x07, 0x80, 0x07,
   0xfc, 0x07, 0xfc, 0x07 };
