#define mirror_width 11
#define mirror_height 8
static unsigned char mirror_bits[] = {
   0xff, 0x07, 0xff, 0x07, 0xff, 0x07, 0xff, 0x07, 0x00, 0x00, 0x77, 0x07,
   0x77, 0x07, 0x77, 0x07 };
