#define tall_width 11
#define tall_height 8
static unsigned char tall_bits[] = {
   0xbf, 0x07, 0xbf, 0x07, 0x3f, 0x00, 0xbf, 0x07, 0xbf, 0x07, 0x3f, 0x00,
   0xbf, 0x07, 0xbf, 0x07 };
